<svg xmlns="http://www.w3.org/2000/svg" width="56" height="56" viewBox="0 0 56 56" fill="none">
<path d="M0 28C0 12.536 12.536 0 28 0V0C43.464 0 56 12.536 56 28V28C56 43.464 43.464 56 28 56V56C12.536 56 0 43.464 0 28V28Z" fill="#EBF5FF"/>
<path fill-rule="evenodd" clip-rule="evenodd" d="M27.9998 16.3331C31.2209 16.3331 33.8331 18.9441 33.8331 22.1665C33.8331 25.3888 31.2209 27.9998 27.9998 27.9998C24.7786 27.9998 22.1664 25.3888 22.1664 22.1665C22.1664 18.9441 24.7786 16.3331 27.9998 16.3331ZM33.3831 39.2815C29.8003 39.7948 26.2 39.7948 22.616 39.2815C20.5043 38.9781 18.8348 37.227 18.6901 35.0978C18.6586 34.6428 18.6586 34.1901 18.6901 33.7351C18.8348 31.606 20.5043 29.8548 22.616 29.5515C26.2 29.0381 29.8003 29.0381 33.3831 29.5515C35.496 29.8548 37.1655 31.606 37.3101 33.7351C37.3416 34.1901 37.3416 34.6428 37.3101 35.0978C37.1655 37.227 35.496 38.9781 33.3831 39.2815Z" fill="#0049CC"/>
</svg>