<svg xmlns="http://www.w3.org/2000/svg" width="24" height="24" viewBox="0 0 24 24" fill="none">
<path fill-rule="evenodd" clip-rule="evenodd" d="M16.4233 21.7735C13.4743 22.0755 10.5262 22.0755 7.57725 21.7735C4.75825 21.4835 2.51625 19.2415 2.22725 16.4225C1.92425 13.4745 1.92425 10.5255 2.22725 7.5775C2.51625 4.7585 4.75825 2.5165 7.57725 2.2265C10.5262 1.9245 13.4743 1.9245 16.4233 2.2265C19.2423 2.5165 21.4843 4.7585 21.7733 7.5775C22.0763 10.5255 22.0763 13.4745 21.7733 16.4225C21.4843 19.2415 19.2423 21.4835 16.4233 21.7735ZM12.0003 8C10.8963 8 10.0003 8.896 10.0003 10C10.0003 11.104 10.8963 12 12.0003 12C13.1044 12 14.0003 11.104 14.0003 10C14.0003 8.896 13.1044 8 12.0003 8ZM14.019 16.8536C14.811 16.7386 15.4369 16.0706 15.492 15.2596C15.5029 15.0856 15.5029 14.9146 15.492 14.7406C15.4369 13.9296 14.811 13.2616 14.019 13.1466C12.676 12.9516 11.325 12.9516 9.98195 13.1466C9.18995 13.2616 8.56295 13.9296 8.50895 14.7406C8.49795 14.9146 8.49795 15.0856 8.50895 15.2596C8.56295 16.0706 9.18895 16.7386 9.98195 16.8536C11.325 17.0486 12.676 17.0486 14.019 16.8536Z" fill="#ADB6C9"/>
</svg>