<svg xmlns="http://www.w3.org/2000/svg" width="21" height="22" viewBox="0 0 21 22" fill="none">
<path fill-rule="evenodd" clip-rule="evenodd" d="M10.5 0.5C16.299 0.5 21 5.201 21 11C21 16.799 16.299 21.5 10.5 21.5C4.701 21.5 0 16.799 0 11C0 5.201 4.701 0.5 10.5 0.5ZM15.564 5.0332C13.681 5.7262 10.348 6.9622 8.123 7.8002C7.717 7.9522 7.412 8.2592 7.26 8.6682C6.439 10.8812 5.222 14.1822 4.534 16.0552C4.353 16.5512 4.945 17.1482 5.437 16.9672C7.319 16.2732 10.652 15.0382 12.877 14.2002C13.283 14.0472 13.588 13.7412 13.74 13.3322C14.562 11.1202 15.779 7.8182 16.467 5.9452C16.648 5.4502 16.056 4.8522 15.564 5.0332ZM11.5469 12.0693C10.9489 12.6543 10.0009 12.6413 9.4239 12.0423C8.8439 11.4373 8.8609 10.5013 9.4639 9.9203C10.0559 9.3493 10.9819 9.3623 11.5629 9.9483C12.1519 10.5433 12.1449 11.4833 11.5469 12.0693Z" fill="#ADB6C9"/>
</svg>