<svg xmlns="http://www.w3.org/2000/svg" width="18" height="18" viewBox="0 0 18 18" fill="none">
<path fill-rule="evenodd" clip-rule="evenodd" d="M9 0.25C13.8325 0.25 17.75 4.1675 17.75 9C17.75 13.8325 13.8325 17.75 9 17.75C4.1675 17.75 0.25 13.8325 0.25 9C0.25 4.1675 4.1675 0.25 9 0.25ZM13.22 4.02767C11.6508 4.60517 8.87333 5.63517 7.01917 6.3335C6.68083 6.46017 6.42667 6.716 6.3 7.05683C5.61583 8.901 4.60167 11.6518 4.02833 13.2127C3.8775 13.626 4.37083 14.1235 4.78083 13.9727C6.34917 13.3943 9.12667 12.3652 10.9808 11.6668C11.3192 11.5393 11.5733 11.2843 11.7 10.9435C12.385 9.10017 13.3992 6.3485 13.9725 4.78767C14.1233 4.37517 13.63 3.87683 13.22 4.02767ZM9.87242 9.89108C9.37408 10.3786 8.58408 10.3678 8.10325 9.86858C7.61992 9.36442 7.63408 8.58442 8.13658 8.10025C8.62992 7.62442 9.40158 7.63525 9.88575 8.12358C10.3766 8.61942 10.3708 9.40275 9.87242 9.89108Z" fill="white"/>
</svg>