<svg xmlns="http://www.w3.org/2000/svg" width="24" height="24" viewBox="0 0 24 24" fill="none">
<path fill-rule="evenodd" clip-rule="evenodd" d="M18.5858 11.0002L17.2929 9.70727C16.9024 9.31675 16.9024 8.68359 17.2929 8.29306C17.6834 7.90254 18.3166 7.90254 18.7071 8.29306L21.7071 11.2931C22.0976 11.6836 22.0976 12.3168 21.7071 12.7073L18.7071 15.7073C18.3166 16.0978 17.6834 16.0978 17.2929 15.7073C16.9024 15.3168 16.9024 14.6836 17.2929 14.2931L18.5858 13.0002H9.00001C8.44773 13.0002 8.00001 12.5525 8.00001 12.0002C8.00001 11.4479 8.44773 11.0002 9.00001 11.0002H18.5858ZM12.0185 19.9973C12.5635 20.0103 12.9995 20.4453 12.9995 20.9913C12.9995 21.5523 12.5395 22.0133 11.9805 22.0003C10.8455 21.9733 9.71151 21.9013 8.57851 21.7853C5.75851 21.4953 3.51651 19.2503 3.22651 16.4283C3.07551 14.9523 2.99951 13.4763 2.99951 12.0003C2.99951 10.5243 3.07551 9.04927 3.22651 7.57327C3.51651 4.75027 5.75851 2.50527 8.57851 2.21627C9.71151 2.09927 10.8455 2.02727 11.9805 2.00027C12.5395 1.98727 12.9995 2.44927 12.9995 3.01027C12.9995 3.55527 12.5635 3.99027 12.0185 4.00327C10.9365 4.02927 9.85651 4.09727 8.78151 4.20727C6.89151 4.40127 5.41151 5.88227 5.21651 7.77327C5.07351 9.17627 4.99951 10.5993 4.99951 12.0003C4.99951 13.4023 5.07351 14.8243 5.21651 16.2263C5.41151 18.1183 6.89151 19.5993 8.78151 19.7933C9.85651 19.9033 10.9365 19.9723 12.0185 19.9973Z" fill="#ADB6C9"/>
</svg>