<svg xmlns="http://www.w3.org/2000/svg" width="20" height="15" viewBox="0 0 20 15" fill="none">
<path fill-rule="evenodd" clip-rule="evenodd" d="M19.789 4.30576C19.508 2.16576 17.668 0.465756 15.379 0.251756C13.586 0.0837559 11.793 -0.000244141 9.99999 -0.000244141C8.20699 -0.000244141 6.41399 0.0837559 4.62099 0.251756C2.33199 0.465756 0.491994 2.16576 0.210994 4.30576C-0.0700059 6.43576 -0.0700059 8.56476 0.210994 10.6948C0.491994 12.8338 2.33199 14.5348 4.62099 14.7478C6.41399 14.9158 8.20699 14.9998 9.99999 14.9998C11.793 14.9998 13.586 14.9158 15.379 14.7478C17.668 14.5348 19.508 12.8338 19.789 10.6948C20.07 8.56476 20.07 6.43576 19.789 4.30576ZM5.68649 6.43906C4.89549 6.52106 4.10449 6.52106 3.31349 6.43906C2.93449 6.39906 2.63349 6.17406 2.58249 5.89006C2.47249 5.29606 2.47249 4.70406 2.58249 4.11006C2.63349 3.82606 2.93449 3.60106 3.31349 3.56106C4.10449 3.48006 4.89549 3.48006 5.68649 3.56106C6.06549 3.60106 6.36649 3.82606 6.41749 4.11006C6.52749 4.70406 6.52749 5.29606 6.41749 5.89006C6.36649 6.17406 6.06549 6.39906 5.68649 6.43906ZM4.49999 11.5001H3.49999C2.94699 11.5001 2.49999 11.0521 2.49999 10.5001C2.49999 9.94806 2.94699 9.50006 3.49999 9.50006H4.49999C5.05299 9.50006 5.49999 9.94806 5.49999 10.5001C5.49999 11.0521 5.05299 11.5001 4.49999 11.5001ZM8.49999 11.5001H7.49999C6.94699 11.5001 6.49999 11.0521 6.49999 10.5001C6.49999 9.94806 6.94699 9.50006 7.49999 9.50006H8.49999C9.05299 9.50006 9.49999 9.94806 9.49999 10.5001C9.49999 11.0521 9.05299 11.5001 8.49999 11.5001ZM12.5 11.5001H11.5C10.947 11.5001 10.5 11.0521 10.5 10.5001C10.5 9.94806 10.947 9.50006 11.5 9.50006H12.5C13.053 9.50006 13.5 9.94806 13.5 10.5001C13.5 11.0521 13.053 11.5001 12.5 11.5001ZM16.5 11.5001H15.5C14.947 11.5001 14.5 11.0521 14.5 10.5001C14.5 9.94806 14.947 9.50006 15.5 9.50006H16.5C17.053 9.50006 17.5 9.94806 17.5 10.5001C17.5 11.0521 17.053 11.5001 16.5 11.5001Z" fill="#ADB6C9"/>
</svg>