<svg xmlns="http://www.w3.org/2000/svg" width="19" height="20" viewBox="0 0 19 20" fill="none">
<path fill-rule="evenodd" clip-rule="evenodd" d="M14 10.8333C16.3008 10.8333 18.1666 12.6983 18.1666 15C18.1666 16.375 17.4916 17.5842 16.465 18.3425C15.7733 18.8542 14.9258 19.1667 14 19.1667C12.45 19.1667 11.1133 18.31 10.3958 17.0542C10.0475 16.4458 9.83329 15.7508 9.83329 15C9.83329 14.5617 9.91913 14.1475 10.045 13.7517C10.2375 13.1417 10.5541 12.5917 10.9825 12.1392C11.7425 11.3383 12.8091 10.8333 14 10.8333ZM17.33 10.1273C16.385 9.46733 15.2375 9.0765 14 9.0765C12.7867 9.0765 11.6351 9.44504 10.6632 10.131C10.6706 9.96475 10.6652 9.79808 10.6482 9.63141C10.624 9.39641 10.4374 9.20975 10.2024 9.18558C9.95654 9.16058 9.71071 9.16058 9.46488 9.18558C9.22988 9.20975 9.04321 9.39641 9.01904 9.63141C8.99404 9.87725 8.99404 10.1231 9.01904 10.3689C9.04321 10.6031 9.22988 10.7906 9.46488 10.8147C9.59154 10.8272 9.71821 10.8332 9.84488 10.8329C9.81983 10.8537 9.79648 10.8779 9.77329 10.9023C9.17163 11.5373 8.72829 12.2965 8.45579 13.1582C8.26079 13.774 8.16663 14.3465 8.16663 14.9098C8.16663 15.914 8.42913 16.8832 8.94829 17.7915C9.05496 17.979 9.17746 18.154 9.30246 18.3257C7.97246 18.3365 6.64163 18.2807 5.31079 18.144C2.96413 17.9032 1.09746 16.0365 0.856626 13.689C0.644118 11.6261 0.609872 9.56326 0.753888 7.50039L17.2458 7.50063C17.3057 8.37599 17.3328 9.25146 17.33 10.1273ZM6.03529 12.5189C5.78946 12.4939 5.54363 12.4939 5.29863 12.5189C5.06279 12.5431 4.87613 12.7297 4.85279 12.9647C4.82696 13.2106 4.82696 13.4564 4.85279 13.7022C4.87613 13.9364 5.06279 14.1239 5.29863 14.1481C5.54363 14.1722 5.78946 14.1722 6.03529 14.1481C6.27029 14.1239 6.45696 13.9364 6.48113 13.7022C6.50613 13.4564 6.50613 13.2106 6.48113 12.9647C6.45696 12.7297 6.27029 12.5431 6.03529 12.5189ZM6.03529 9.18558C5.78946 9.16058 5.54363 9.16058 5.29863 9.18558C5.06279 9.20975 4.87613 9.39641 4.85279 9.63141C4.82696 9.87725 4.82696 10.1231 4.85279 10.3689C4.87613 10.6031 5.06279 10.7906 5.29863 10.8147C5.54363 10.8389 5.78946 10.8389 6.03529 10.8147C6.27029 10.7906 6.45696 10.6031 6.48113 10.3689C6.50613 10.1231 6.50613 9.87725 6.48113 9.63141C6.45696 9.39641 6.27029 9.20975 6.03529 9.18558ZM14.6818 14.3182V13.1818C14.6818 12.8053 14.3765 12.5 14 12.5C13.6234 12.5 13.3181 12.8053 13.3181 13.1818V14.3182H12.1818C11.8052 14.3182 11.5 14.6235 11.5 15C11.5 15.3766 11.8052 15.6818 12.1818 15.6818H13.3181V16.8182C13.3181 17.1947 13.6234 17.5 14 17.5C14.3765 17.5 14.6818 17.1947 14.6818 16.8182V15.6818H15.8181C16.1947 15.6818 16.5 15.3766 16.5 15C16.5 14.6235 16.1947 14.3182 15.8181 14.3182H14.6818ZM11.5 0.833496C11.9273 0.833496 12.2795 1.1552 12.3277 1.56965L12.3333 1.66683V1.82266L12.6891 1.8565C14.8742 2.08074 16.643 3.71456 17.0714 5.83363L0.929137 5.83373C1.35683 3.71461 3.12573 2.08074 5.31079 1.8565L5.66738 1.82154L5.66663 1.66683C5.66663 1.20659 6.03972 0.833496 6.49996 0.833496C6.92732 0.833496 7.27955 1.1552 7.32769 1.56965L7.33382 1.70525C8.44483 1.65357 9.55592 1.65358 10.6669 1.70529L10.6666 1.66683C10.6666 1.20659 11.0397 0.833496 11.5 0.833496Z" fill="white"/>
</svg>