<svg xmlns="http://www.w3.org/2000/svg" width="24" height="24" viewBox="0 0 18 21" fill="none">
<path fill-rule="evenodd" clip-rule="evenodd" d="M0.5 7.32216C0.5 5.57361 1.86757 4.13642 3.58023 4.03938L3.765 4.03416L10.5 3.99016L10.418 1.76516C10.3009 1.21549 10.884 0.813894 11.3501 1.06834L11.431 1.12016L17.237 5.47016C17.5588 5.71766 17.5856 6.17523 17.3174 6.44234L17.237 6.51016L11.411 10.8602C10.9614 11.1935 10.3469 10.841 10.3844 10.3105L10.398 10.2152L10.5 7.99016L3.889 7.94616C3.30627 7.94616 2.75826 8.18666 2.35314 8.59026L2.236 8.71616L1.182 9.94416C0.970286 10.1958 0.563704 10.0698 0.506701 9.75025L0.5 9.67316L0.5 7.32216ZM0.7638 16.51C0.44205 16.2625 0.415238 15.8049 0.683363 15.5378L0.7638 15.47L6.5898 11.12C7.03936 10.7866 7.65393 11.1391 7.61636 11.6696L7.6028 11.765L7.5008 13.99L14.1118 14.034C14.6945 14.034 15.2425 13.7935 15.6477 13.3899L15.7648 13.264L16.8188 12.036C17.0305 11.7843 17.4371 11.9103 17.4941 12.2299L17.5008 12.307V14.658C17.5008 16.4065 16.1332 17.8437 14.4206 17.9407L14.2358 17.946L7.5008 17.99L7.5828 20.215C7.69991 20.7646 7.11682 21.1662 6.65068 20.9118L6.5698 20.86L0.7638 16.51Z" fill="#ADB6C9"/>
</svg>