<svg xmlns="http://www.w3.org/2000/svg" width="21" height="16" viewBox="0 0 21 16" fill="none">
<path fill-rule="evenodd" clip-rule="evenodd" d="M14.5002 0.635604V2.4689C14.5002 3.0389 14.0532 3.4999 13.5002 3.4999C12.9472 3.4999 12.5002 3.0389 12.5002 2.4689V0.533868C11.8336 0.511278 11.1669 0.5 10.5002 0.5C8.41824 0.5 6.33624 0.61 4.25424 0.831C2.40524 1.026 0.944238 2.445 0.661238 4.259C0.653866 4.30534 0.649267 4.3514 0.644666 4.39748C0.64053 4.4389 0.636393 4.48034 0.630239 4.522C0.581239 4.859 0.540238 5.197 0.505238 5.534C0.456238 6.028 0.756238 6.46 1.18524 6.712C1.63024 6.974 1.92924 7.452 1.92924 8C1.92924 8.548 1.63024 9.026 1.18524 9.288C0.756238 9.54 0.456238 9.972 0.505238 10.466C0.540238 10.803 0.581239 11.141 0.630239 11.477C0.636396 11.5187 0.640535 11.5604 0.644673 11.6021C0.649272 11.6484 0.65387 11.6947 0.661238 11.741C0.944238 13.555 2.40524 14.974 4.25424 15.169C6.33624 15.39 8.41824 15.5 10.5002 15.5C11.1669 15.5 11.8336 15.4887 12.5002 15.4661V13.5479C12.5002 12.9689 12.9472 12.4999 13.5002 12.4999C14.0532 12.4999 14.5002 12.9689 14.5002 13.5479V15.3644C15.2489 15.3136 15.9976 15.2485 16.7462 15.169C18.5952 14.974 20.0562 13.555 20.3402 11.741C20.3476 11.6947 20.3522 11.6484 20.3568 11.6021C20.3609 11.5604 20.3651 11.5187 20.3712 11.477C20.4192 11.141 20.4612 10.803 20.4952 10.466C20.5442 9.972 20.2452 9.54 19.8152 9.288C19.3702 9.026 19.0712 8.548 19.0712 8C19.0712 7.452 19.3702 6.974 19.8152 6.712C20.2452 6.46 20.5442 6.028 20.4952 5.534C20.4612 5.197 20.4192 4.859 20.3712 4.522C20.3651 4.48034 20.3609 4.4389 20.3568 4.39748C20.3522 4.3514 20.3476 4.30534 20.3402 4.259C20.0562 2.445 18.5952 1.026 16.7462 0.831C15.9976 0.751531 15.2489 0.686414 14.5002 0.635604ZM13.5002 7.4999C12.9472 7.4999 12.5002 7.0389 12.5002 6.4689V5.5309C12.5002 4.9609 12.9472 4.4999 13.5002 4.4999C14.0532 4.4999 14.5002 4.9609 14.5002 5.5309V6.4689C14.5002 7.0389 14.0532 7.4999 13.5002 7.4999ZM12.5002 10.4689C12.5002 11.0389 12.9472 11.4999 13.5002 11.4999C14.0532 11.4999 14.5002 11.0389 14.5002 10.4689V9.5309C14.5002 8.9609 14.0532 8.4999 13.5002 8.4999C12.9472 8.4999 12.5002 8.9609 12.5002 9.5309V10.4689Z" fill="#ADB6C9"/>
</svg>