<svg xmlns="http://www.w3.org/2000/svg" height="15" viewBox="0 0 16 15" width="16"><g fill="#8dc448" transform=""><path d="m12.1239559 6.09175958c-.0003588-.00300234-.0005741-.00604129-.0010047-.00900701-.0020811-.01479201-.0048439-.0295474-.0087549-.04411973-.0000359-.00014645-.0001077-.00029291-.0001436-.00047598-.0036598-.01362036-.0083243-.02705765-.0135988-.04034849-.001507-.00380785-.0031575-.00746923-.0047722-.01120385-.0041621-.00959284-.0087908-.01903922-.0138141-.02833914-.0021887-.00406414-.0043057-.00812828-.0066738-.0121192-.0012559-.00216021-.0022605-.00439366-.0035881-.00655388-.0053104-.00860426-.0111231-.01669593-.0170076-.02471437-.0011123-.00150117-.0020093-.00307556-.0031216-.00454012-.0089702-.0118629-.0186581-.02288367-.0288124-.03331863-.0019016-.00197715-.0039827-.00380784-.0059562-.00571176-.0088267-.00867749-.0179763-.01680577-.0275206-.02445808-.0024399-.00194053-.0048081-.00388107-.0073197-.00574837-.0127736-.00966607-.0259419-.01867308-.0396843-.02647184l-5.28615079-3.06615606 3.04359575-1.95569373 5.10251244 2.95957306-2.1489418 1.38081922c-.1677073.10771803-.2180481.33380873-.1124507.50490539.1055615.17113327.3270901.22250254.4947973.11474789l2.6561181-1.70668274c.1067815-.06857779.1703983-.18936698.1675279-.31810138-.0028346-.1287344-.07169-.2464114-.1814138-.31004632l-5.81029868-3.37016111c-.11492646-.06671048-.2565483-.06341523-.36849665.00845781l-3.73003288 2.39678113c-.0007535.00047598-.00154288.00098858-.00229638.00146456l-1.86390413 1.19767659c-.00086114.00054921-.00172228.00109842-.00254754.00164762l-3.73258042 2.39842876c-.10678151.06857779-.17039831.18936698-.16752784.31810138.00283459.1287344.07169.24641141.18141374.31004633l5.8103346 3.37016107c.05504127.0319639.1161823.0478544.17728744.0478544.06648727 0 .1328669-.0188562.19117333-.0563122l2.65611811-1.70671933c.16770724-.10771803.21804811-.33380873.11245068-.50490539-.10552567-.17113327-.32712599-.22253916-.49479735-.1147479l-2.47438145 1.58992108-5.10251246-2.95964629 3.04363162-1.95573034 5.44205325 3.15655573v4.18064594c0 .1333477.07100826.2561141.18539651.3205545.05407249.0304627.11377827.0455843.1734123.0455843.06652315 0 .1329028-.0188562.1911733-.0563122l1.8663082-1.1992143c.1043416-.0670401.1676355-.1840214.1676355-.3098267v-4.39366547c0-.00216022-.0003588-.00421059-.0004306-.00637081-.0002153-.01215581-.0010047-.02431162-.002404-.03650404zm-1.8634736 4.97256752v-3.73044168c0-.13170012-.0693219-.25322158-.1815214-.31828445l-5.28923654-3.06791353 1.17735935-.75655258 5.10247659 2.95960968-.4467529.28705281c-.1677072.10771803-.2180481.33380874-.1124506.50490539.0681736.11057392.1847506.17109666.3039828.17109666.0653032 0 .1314675-.0181971.1908145-.05634876l.4039829-.25955579v3.52833305z"/><path d="m15.2716695 5.02906791-2.8376274 1.49334487c-.1791677.09425312-.2329487.29208215-.1201351.44179147.0728324.09675201.1973758.14970932.3247559.14970932.0697657 0 .1404515-.01592243.203854-.04930508l2.8376274-1.49334487c.1791678-.09425311.2329487-.29208214.1201352-.44179147-.1127753-.14974135-.3494806-.19472143-.52861-.10040424z"/><path d="m8.81015367 8.90322522-2.52482723 1.65418938-5.73822373-3.39367096c-.17566626-.10392015-.39929476-.04007478-.49920998.14292829-.09991522.1828888-.03844301.41545204.1373697.51941028l5.92879124 3.50639079c.05616341.033256.11855093.0497887.18090183.0497887.06784277 0 .13557569-.0196183.19507083-.0585884l2.710269-1.77570888c.17112633-.11207224.22249351-.34730205.11474324-.52531483-.10767705-.17808897-.33379519-.2315728-.5048849-.11942437z"/><path d="m15.2716695 6.45185823-2.8376274 1.49333943c-.1791677.09425277-.2329487.29208108-.1201351.44178985.0728324.09675166.1973758.14970878.3247559.14970878.0697657 0 .1404515-.01592238.203854-.0493049l2.8376274-1.49333943c.1791678-.09425277.2329487-.29208108.1201352-.44178985-.1127753-.14977285-.3494806-.19472072-.52861-.10040388z"/><path d="m8.81015367 10.3260079-2.52482723 1.6541894-5.73822373-3.39367095c-.17566626-.10392015-.39929476-.04007478-.49920998.1429283-.09991522.1828888-.03844301.41545203.1373697.51941028l5.92879124 3.50639077c.05616341.033256.11855093.0497887.18090183.0497887.06784277 0 .13557569-.0196183.19507083-.0585884l2.710269-1.7757089c.17112633-.1120722.22249351-.347302.11474324-.5253148-.10767705-.1781271-.33379519-.2315728-.5048849-.1194244z"/><path d="m15.2716695 7.87461947-2.8376274 1.49335481c-.1791677.09425374-.2329487.29208409-.1201351.44179441.0728324.09675265.1973758.14971031.3247559.14971031.0697657 0 .1404515-.01592254.203854-.04930541l2.8376274-1.4933548c.1791678-.09425375.2329487-.29208409.1201352-.44179441-.1127753-.14974235-.3494806-.19469069-.52861-.10040491z"/><path d="m8.81015367 11.7487907-2.52482723 1.6541893-5.73822373-3.3936709c-.17566626-.10392018-.39929476-.04007481-.49920998.1429283-.09991522.1828888-.03844301.415452.1373697.5194102l5.92879124 3.5063908c.05616341.033256.11855093.0497887.18090183.0497887.06784277 0 .13557569-.0196183.19507083-.0585884l2.710269-1.7757089c.17112633-.1120722.22249351-.347302.11474324-.5253148-.10767705-.1780889-.33379519-.2315728-.5048849-.1194243z"/></g></svg>