<svg xmlns="http://www.w3.org/2000/svg" height="78" viewBox="0 0 94 78" width="94"><g fill="#9e6333" stroke="#fff" transform="translate(1 1)"><path d="m67.0354434 35.5211409c-1.8844756 0-3.6283509.6393651-5.0497778 1.7199901-1.4646472-1.1153076-3.221614-1.7199901-5.0551579-1.7199901-4.7628382 0-8.6375984 4.0725595-8.6375984 9.0785317.0003587 5.0057837 3.8751189 9.0783433 8.6377778 9.0783433 1.8335438 0 3.5903313-.6046826 5.0549785-1.7199901 1.4214269 1.080625 3.1654815 1.7199901 5.0497778 1.7199901 4.7626589 0 8.6374191-4.0725596 8.6374191-9.0783433 0-5.0059722-3.8747602-9.0785317-8.6374191-9.0785317zm-8.6270175 9.5088591c.001614.0354365.0039454.0706845.0059181.106121.0062768.1155457.0147056.2307143.0251072.345506.0025107.0267659.0048421.0535317.0075322.0802976.1599688 1.6127381.7196803 3.1276488 1.6326861 4.4216468-.9397271.6095834-2.0238206.9362401-3.1489824.9362401-3.3159455 0-6.0135361-2.8352976-6.0135361-6.3203274.0001793-3.4848412 2.69777-6.3203274 6.0135361-6.3203274 1.1251618 0 2.2092553.3266568 3.1489824.9362401-.9128265 1.293998-1.4727173 2.8089088-1.6326861 4.4216469-.0026901.0267658-.0050215.0533432-.0075322.0801091-.0104016.1147916-.0186511.2299603-.0251072.3455059-.0019727.0354365-.0043041.0704961-.0059181.1059326-.0062769.1430654-.0104016.2865079-.0104016.4307043 0 .1441965.0041247.2876389.0104016.4307044zm8.6273762 5.89c-1.6418324 0-3.1314074-.6957242-4.2176531-1.8206448-.0224171-.0231846-.0444756-.0465576-.0665341-.0701191-.0500351-.0535317-.0997115-.107629-.1479532-.1630456-.0132709-.0152679-.0263626-.0307242-.0396335-.0461806-.0566706-.0663492-.1126238-.1334524-.1666043-.202252-.0003587-.0003769-.000538-.0007539-.0008967-.0011309-.8581286-1.092877-1.3742612-2.492996-1.3742612-4.0173314-.0001793-1.5241468.5161326-2.9242658 1.3744406-4.0173313.0001793-.0001885.0003586-.000377.000538-.000754.0541598-.0689881.1102924-.1360913.1671423-.202629.0130916-.0152678.0260039-.0305357.0392748-.045615.0484211-.0556052.0980975-.1098909.1483119-.1634226.0218792-.0233731.0437583-.0465576.0659961-.0695536 1.0862456-1.1249207 2.576-1.8208334 4.2178324-1.8208334 3.3157661 0 6.0133567 2.8352977 6.0133567 6.3205159 0 3.4850298-2.6975906 6.3203274-6.0133567 6.3203274z"/><path d="m7.65178168 32.5064153h12.24281482c.9182066 0 1.5302846-.6190645 1.5302846-1.5477518 0-.9286874-.612078-1.5477518-1.5302846-1.5477518h-12.24281482c-.91820663 0-1.5302846.6190644-1.5302846 1.5477518 0 .9286873.61207797 1.5477518 1.5302846 1.5477518z"/><path d="m26.0159142 32.5064153h12.2428148c.9182067 0 1.5302846-.6190645 1.5302846-1.5477518 0-.9286874-.6120779-1.5477518-1.5302846-1.5477518h-12.2428148c-.9182066 0-1.5302846.6190644-1.5302846 1.5477518 0 .9286873.612078 1.5477518 1.5302846 1.5477518z"/><path d="m7.65178168 38.6977852h19.89441712c.9182067 0 1.5302846-.6190644 1.5302846-1.5477518 0-.9286873-.6120779-1.5477518-1.5302846-1.5477518h-19.89441712c-.91820663 0-1.5302846.6190645-1.5302846 1.5477518 0 .9286874.61207797 1.5477518 1.5302846 1.5477518z"/><path d="m38.2585497 35.6021002h-4.5910331c-.9182067 0-1.5302846.6190645-1.5302846 1.5477518 0 .9286874.6120779 1.5477518 1.5302846 1.5477518h4.5910331c.9182066 0 1.5302846-.6190644 1.5302846-1.5477518 0-.9286873-.612078-1.5477518-1.5302846-1.5477518z"/><path d="m90.4433528 16.4092888c-1.0711813-1.393031-2.4484912-2.1669976-4.1319298-2.3217184l-3.6728265-.4501957v-4.3481432-3.09550358c0-3.40512649-2.7546199-6.19118854-6.1213177-6.19118854h-70.39596106c-3.36669786-.00018138-6.12131774 2.78588067-6.12131774 6.19118854v3.09568497 12.38255851 34.051809c0 2.7956754 1.85739571 5.172716 4.38533333 5.9345299-.07711501 3.1310549 2.26520858 5.8492792 5.40899026 6.1384057l70.70191031 8.0485632h.612078c3.0607485 0 5.8153684-2.3217183 6.1213177-5.2625012l4.5910332-49.6847732c.1529746-1.5479332-.3061287-3.2505871-1.37731-4.488716zm-87.38260426-5.5721241h76.51727876v4.0243723 5.2625012h-76.51727876zm3.0605692-7.73912174h70.39578166c1.6834386 0 3.0607486 1.39303103 3.0607486 3.09568496v1.54775179h-76.51709946v-1.54775179c0-1.70265393 1.37730994-3.09568496 3.0605692-3.09568496zm-3.0605692 52.62555604v-32.5040572h76.51727876v32.5040572c0 1.702654-1.37731 3.095685-3.0607485 3.095685h-70.24280707-.15297465c-1.6834386 0-3.06074854-1.393031-3.06074854-3.095685zm85.69916566-35.4448401-4.5910331 49.6847733c-.1529747 1.702654-1.6834386 2.9407828-3.3666979 2.7860621l-70.5489356-8.0485633c-1.53028464-.1547207-2.60164526-1.393031-2.75461992-2.786062h69.01847172c3.3666979 0 6.1213178-2.7860621 6.1213178-6.1911886v-34.0519904-5.1077805l3.5198518.309623c.765232 0 1.5302846.4643436 1.9893879 1.0834081.4592827.6190644.7654113 1.5477518.6122573 2.3217183z"/></g></svg>