<svg xmlns="http://www.w3.org/2000/svg" width="28" height="30" viewBox="0 0 28 30" fill="none">
<path fill-rule="evenodd" clip-rule="evenodd" d="M25.6465 6.29753C26.4833 6.52682 27.0458 7.2886 27.0458 8.15109V15.9692C27.0458 21.1431 23.8069 25.9249 18.5409 28.5188L16.8995 29.3234C15.0705 30.2255 12.9234 30.2255 11.0945 29.3234L9.46381 28.5166C4.19779 25.9249 0.959961 21.1442 0.959961 15.9735V8.15109C0.959961 7.2886 1.52138 6.52682 2.35923 6.29753C3.82386 5.89254 6.25813 5.10397 8.59382 3.80434C10.8074 2.58292 12.3063 1.24472 13.1538 0.364015C13.6166 -0.121338 14.3773 -0.121338 14.8509 0.364015C15.6995 1.24472 17.1973 2.58292 19.4119 3.80434C21.7466 5.10397 24.1701 5.89254 25.6465 6.29753Z" fill="#33BEDE"/>
<path d="M9.46381 28.5166L11.0945 29.3234C12.0195 29.7797 13.026 30.0052 14.0315 29.9999V0.000470994C13.7132 -0.00857223 13.3935 0.112609 13.1538 0.364015C12.3063 1.24472 10.8074 2.58292 8.59382 3.80434C6.25813 5.10397 3.82386 5.89254 2.35923 6.29753C1.52138 6.52682 0.959961 7.2886 0.959961 8.15109V15.9735C0.959961 21.1442 4.19779 25.9249 9.46381 28.5166Z" fill="#66CEE6"/>
<path fill-rule="evenodd" clip-rule="evenodd" d="M14.0875 16.2474C16.503 16.2474 18.4613 14.2891 18.4613 11.8736C18.4613 9.45814 16.503 7.49988 14.0875 7.49988C11.672 7.49988 9.71375 9.45814 9.71375 11.8736C9.71375 14.2891 11.672 16.2474 14.0875 16.2474Z" fill="#006880"/>
<path fill-rule="evenodd" clip-rule="evenodd" d="M8.58762 20.3031C11.1324 22.6874 13.7795 22.4922 13.7795 22.4922C15.9868 22.6011 17.9061 21.484 19.3412 20.2579C19.3998 20.2078 19.4768 20.1386 19.5624 20.0593C20.0252 19.6317 19.9997 18.8773 19.4891 18.5078C18.2726 17.6278 16.7794 17.1083 15.162 17.1083H13.0133C11.3099 17.1083 9.74257 17.6823 8.49239 18.6468C8.01181 19.0177 7.98736 19.7376 8.4294 20.1541L8.58762 20.3031Z" fill="#006880"/>
</svg>