<svg xmlns="http://www.w3.org/2000/svg" height="13" viewBox="0 0 16 13" width="16"><g fill="#9e6333" transform=""><path d="m11.4226746 6c-.3441342 0-.6625926.10564016-.922167.28418823-.267467-.18427855-.58831618-.28418823-.92314946-.28418823-.86976741 0-1.57735814.67289545-1.57735814 1.50001557.0000655.82708898.70765623 1.49998443 1.57739089 1.49998443.33483328 0 .65564971-.09990968.92311671-.28418823.2595744.17854807.5780656.28418823.922167.28418823.8697347 0 1.5773254-.67289545 1.5773254-1.49998443 0-.82712012-.7075907-1.50001557-1.5773254-1.50001557zm-1.57542591 1.57111713c.00029475.00585506.0007205.01167897.00108075.01753403.00114624.01909122.00268547.03812015.00458496.0570868.0004585.00442243.00088424.00884487.00137549.0132673.02921276.26646735.13142468.516771.29815361.73057399-.17160864.10071942-.36958078.15469183-.57505261.15469183-.60554256 0-1.09816405-.46846679-1.09816405-1.04428665.00003275-.57578872.49265424-1.04428665 1.09816405-1.04428665.20547183 0 .40344397.05397241.57505261.15469183-.16669618.21380298-.26894085.46410664-.29815361.73057398-.00049125.00442244-.00091699.00881373-.00137549.01323617-.00189949.01896664-.00340597.03799557-.00458496.0570868-.00036025.00585505-.000786.01164782-.00108075.01750288-.00114624.02363823-.00189948.04733875-.00189948.07116384 0 .0238251.00075324.04752562.00189948.07116385zm1.57549141.97318509c-.2998238 0-.5718431-.11495219-.7702082-.30081908-.0040937-.00383071-.008122-.00769255-.0121502-.01158554-.0091371-.00884487-.0182088-.01778318-.0270185-.02693949-.0024235-.00252266-.0048142-.00507646-.0072377-.00763026-.0103489-.01096266-.0205668-.02204989-.0304245-.03341742-.0000655-.00006229-.0000982-.00012458-.0001637-.00018686-.1567075-.18057243-.2509612-.41190944-.2509612-.66377029-.0000328-.2518297.0942537-.48316671.2509939-.66377028.0000328-.00003114.0000655-.00006229.0000983-.00012457.0098904-.01139868.020141-.02248591.0305227-.03347971.0023907-.00252266.0047487-.00504532.0071722-.00753683.0088424-.00918746.0179141-.0181569.027084-.02700178.0039955-.00386184.007991-.00769254.0120519-.0114921.1983652-.18586689.4704172-.30085023.770241-.30085023.6055098 0 1.0981313.46846678 1.0981313 1.04431779 0 .57581987-.4926215 1.04428665-1.0981313 1.04428665z"/><path d="m1.29998945 6h2.4000211c.1800007 0 .29998945-.19998828.29998945-.5s-.11998875-.5-.29998945-.5h-2.4000211c-.1800007 0-.29998945.19998828-.29998945.5s.11998875.5.29998945.5z"/><path d="m4.29998945 6h2.4000211c.1800007 0 .29998945-.19998828.29998945-.5s-.11998875-.5-.29998945-.5h-2.4000211c-.1800007 0-.29998945.19998828-.29998945.5s.11998875.5.29998945.5z"/><path d="m1.26665833 7h3.46668334c.16000125 0 .26665833-.19998828.26665833-.5s-.10665708-.5-.26665833-.5h-3.46668334c-.16000125 0-.26665833.19998828-.26665833.5s.10665708.5.26665833.5z"/><path d="m6.80000469 6h-.60000938c-.12000187 0-.19999531.19998828-.19999531.5s.07999344.5.19999531.5h.60000938c.12000187 0 .19999531-.19998828.19999531-.5s-.07999344-.5-.19999531-.5z"/><path d="m15.7550799 2.81223678c-.186598-.2387757-.426523-.37143923-.7197752-.3979595l-.6398002-.07716684v-.74530353-.53059194c0-.58366357-.4798502-1.06121497-1.0663233-1.06121497h-12.26285795c-.5864731-.00003109-1.06632325.47752031-1.06632325 1.06121497v.53062303 2.12246104 5.83672898c0 .47919918.32355521.88664138.76391769 1.01722178-.01343331.5366857.39459552 1.0026092.942237 1.0521676l12.31615381 1.3795826h.106623c.5331772 0 1.0130274-.3979595 1.0663232-.9020312l.7997503-8.51633329c.0266479-.26532706-.0533271-.55717439-.2399251-.76939873zm-15.22190265-.95510281h13.32918125v.68980684.90203117h-13.32918125zm.533146-1.32654203h12.26282675c.2932522 0 .5331772.2387757.5331772.53062303v.26529597h-13.32914995v-.26529597c0-.29184733.23992507-.53062303.533146-.53062303zm-.533146 9.02040499v-5.57143301h13.32918125v5.57143301c0 .29184733-.2399251.53062307-.5331773.53062307h-12.23617878-.02664793c-.29325217 0-.53317724-.23877574-.53317724-.53062307zm14.92865045-6.07550468-.7997502 8.51633335c-.0266479.2918473-.2932522.5040716-.5864731.4775514l-12.28950592-1.3795826c-.26657301-.0265203-.45320223-.2387757-.47985015-.4775514h12.02290167c.5864731 0 1.0663232-.4775514 1.0663232-1.06121498v-5.83676007-.8755109l.6131523.05307163c.1333021 0 .266573.0795919.346548.18570407.0800063.10611217.1333334.26529597.1066542.3979595z"/></g></svg>