<svg xmlns="http://www.w3.org/2000/svg" height="18" viewBox="0 0 18 18" width="18"><path d="m29.4699545 20.5381056 3.1547218 3.1547219-5.7104459 5.7104459-3.1547218-3.1547219zm-2.1064757 9.7736478 6.1696775-6.1696776c.2495825-.2495824.2495825-.6489143 0-.8984967l-3.6139535-3.6139535c-.2395991-.2395992-.6588976-.2395992-.8984967 0l-6.1696776 6.1696775c-.2495824.2495825-.2495824.6489143 0 .8984968l3.6139536 3.6139535c.1197995.1197995.2795323.1796993.4492483.1796993.1697161 0 .3294488-.0598998.4492484-.1796993zm8.875151-6.3593602-9.0548504 9.0648337c-.4991648.4891815-1.3177952.4891815-1.8069767 0l-1.2578954-1.2578955c.7487472-.7487472.7487472-1.9667095 0-2.7154567-.7487473-.7487473-1.9667096-.7487473-2.7154568 0l-1.2479122-1.2578955c-.4991648-.4891815-.4991648-1.3078119 0-1.8069767l9.0548504-9.0448671c.4891816-.4991649 1.3078119-.4991649 1.8069768 0l1.2479121 1.2479121c-.7487473.7487473-.7487473 1.9667095 0 2.7154568s1.9667095.7487473 2.7154568 0l1.2578954 1.2479121c.4891816.4991649.4891816 1.3177952 0 1.8069768z" fill="#e56222" fill-rule="evenodd" transform="translate(-19 -16)"/></svg>