<svg xmlns="http://www.w3.org/2000/svg" height="14" viewBox="0 0 14 14" width="14"><g fill="#8aa9c3" transform=""><path d="m7.5292 4.22619355-.5292-.87341936-1.7528 2.89393549h3.50513333z"/><path d="m9.07246667 7.03703226h-4.14493334l-.20066666 4.96729034 2.037-3.91367744h.52873333l1.97913333 3.87800004z"/><path d="m8.8956 13.0168387-1.87226667-3.6684516-2.3212 4.4587742h4.5962z"/><path d="m13.2029333 7.03703226h-3.31286663l.27346663 6.77058064h3.8056667v-.4443871z"/><path d="m1.148 6.24670968h3.1528l1.5764-2.60264516z"/><path d="m.79706667 7.03703226-.7658 6.32574194v.4443871h3.80566666l.27346667-6.77058065z"/><path d="m8.1228 3.64406452 1.5764 2.60264516h3.1528z"/><path d="m9.45.31929032h-2.85833333v2.37096774h.81666666v-.79032258h2.04166667l-.81666667-.79032258z"/></g></svg>