<svg xmlns="http://www.w3.org/2000/svg" width="122" height="32" viewBox="0 0 122 32" fill="none">
<path fill-rule="evenodd" clip-rule="evenodd" d="M99.1193 3.95081C98.4418 5.37542 97.7643 6.80015 97.0714 8.25507C97.123 8.26521 97.1607 8.27535 97.1985 8.28549C97.2174 8.29056 97.2363 8.29564 97.2569 8.30071C97.5088 8.30071 97.7623 8.29902 98.0165 8.29734C98.5265 8.29395 99.0388 8.29055 99.5442 8.30071C99.7142 8.30071 99.8069 8.20943 99.9151 8.10295C101.136 6.77949 102.372 5.45603 103.609 4.13257C103.64 4.1018 103.664 4.05721 103.691 4.0081C103.704 3.98437 103.717 3.95959 103.732 3.93481H99.1269L99.1193 3.95081ZM58.1872 29.0957C56.4717 29.0805 54.8181 28.7762 53.319 27.9396C50.6608 26.4488 49.0535 24.1974 48.5435 21.2158C48.2344 19.4512 48.3117 17.7018 48.8526 15.9828C49.8726 12.697 53.0717 9.95877 56.5336 9.50241C58.9754 9.18295 61.3245 9.4872 63.4418 10.7802C66.0228 12.3623 67.5682 14.6441 67.9855 17.6257C68.2482 19.512 68.1401 21.3679 67.3828 23.1325C66.0228 26.2966 63.6427 28.259 60.1963 28.9131C59.9336 28.9588 59.6709 29.0044 59.4081 29.0348C58.9909 29.0653 58.589 29.0805 58.1872 29.0957ZM58.1409 13.1685C57.9632 13.1994 57.7819 13.2251 57.6001 13.2508C57.2444 13.3011 56.8866 13.3518 56.5491 13.4424C55.0345 13.8683 54.0145 14.8723 53.3963 16.2566C52.6081 18.006 52.5308 19.8163 53.149 21.6113C53.9527 23.9388 56.1473 25.7338 59.3155 25.1557C61.2164 24.8059 62.4837 23.6649 63.1792 21.9308C63.8747 20.1814 63.8747 18.3863 63.241 16.6217C62.6846 15.0853 61.6028 14.0052 60.011 13.4728C59.3928 13.3055 58.7746 13.2294 58.1409 13.1685ZM36.4734 9.58608L36.4732 9.58608C35.913 9.58228 35.3528 9.57847 34.7888 9.57847V28.8371H44.7571C44.8344 28.2894 44.8035 24.958 44.7262 24.6842H39.0234V9.59369H38.1579C37.5939 9.59369 37.0338 9.58988 36.4736 9.58608L36.4734 9.58608ZM73.2866 9.60891H77.444C77.4671 9.93978 77.4642 10.2707 77.4613 10.6015C77.4604 10.7118 77.4594 10.8221 77.4594 10.9324V12.3015V13.6401V14.9788V16.3479V17.6714C77.4671 17.679 77.4787 17.6828 77.4903 17.6866C77.5019 17.6904 77.5135 17.6942 77.5212 17.7018L77.753 17.428C78.2122 16.8514 78.6714 16.2757 79.1304 15.7002C80.6333 13.816 82.1341 11.9343 83.6258 10.0349C83.8731 9.7154 84.1358 9.57849 84.5377 9.5937C85.5806 9.61651 86.6322 9.61367 87.6861 9.61082L87.6864 9.61082C88.0379 9.60986 88.3896 9.60891 88.7413 9.60891H89.1586L89.0036 9.80106L89.0018 9.8033C86.5529 12.8387 84.1611 15.8033 81.7249 18.7971C84.2904 22.1285 86.8404 25.4448 89.4213 28.8067C89.372 28.8136 89.329 28.8237 89.291 28.8327C89.2458 28.8433 89.2077 28.8523 89.1741 28.8523H84.6304C84.4295 28.8523 84.3213 28.761 84.2131 28.6241C83.139 27.217 82.0649 25.8137 80.9908 24.4104C79.9167 23.007 78.8426 21.6037 77.7685 20.1966C77.7347 20.1567 77.7009 20.1139 77.6659 20.0694C77.6207 20.0122 77.5734 19.9523 77.5212 19.8923C77.4321 20.0051 77.4374 20.1283 77.442 20.2362C77.443 20.2593 77.444 20.2816 77.444 20.3031V28.4264V28.8371H73.2866C73.2094 28.5633 73.1939 9.95879 73.2866 9.60891ZM98.3077 17.3063V13.3967C100.58 13.3967 102.805 13.3967 105.061 13.4119V9.63933H94.0886V28.8371H105.046C105.123 28.3199 105.092 25.3078 105.015 25.0492H103.361H101.661H99.9923H98.3077V21.0484H105.061V17.3063H98.3077ZM122 9.60889V13.6553C121.736 13.6879 121.479 13.6817 121.219 13.6755C121.114 13.6731 121.009 13.6705 120.903 13.6705H119.79H118.677H117.534C117.5 14.2904 117.507 14.8947 117.513 15.4945V15.4952C117.516 15.7343 117.518 15.9726 117.518 16.211V18.7362V21.2614V23.7562V26.2814V28.8219H113.299V13.6858H108.863V9.60889H122Z" fill="#152955"/>
<path d="M0 8.37531C0 7.28438 0.891456 6.4 1.99112 6.4H5.73443V26.6667H20.0705V22.242H10.3538V6.4V0L12.9025 6.4H23.8138C24.9135 6.4 25.8049 7.28438 25.8049 8.37531V30.0247C25.8049 31.1156 24.9135 32 23.8138 32H1.99112C0.891455 32 0 31.1156 0 30.0247V8.37531Z" fill="#152955"/>
</svg>